# xmcd
#
# Track frame offsets:
#	182
#	22472
#	51565
#	76377
#	102645
#	126235
#	147372
#	173852
#	199760
#	223640
#	249995
#	283740
#
# Disc length: 4109 seconds
#
# Revision: 1
# Processed by: cddbd v1.5.1PL2 Copyright (c) Steve Scherf et al.
# Submitted via: EasyCDDAExtractor 8.2.3.1
#
DISCID=c1100b0c
DTITLE=Various Artist - Happy Anthems - Volume 1
DYEAR=1994
DGENRE=Happy Hardcore
TTITLE0=Slipmatt - Hear Me (Seduction Remix)
TTITLE1=Ramos and Supreme - Crowd Control
TTITLE2=Vibes - Sing It Loud
TTITLE3=Dougal and Vibes - Feel Free
TTITLE4=Mercurial - Feel The Energy
TTITLE5=Seduction - Everybody
TTITLE6=Dougal - Life Is Like A Dance (DJ's Mixing)
TTITLE7=Force and Evolution - High On Life
TTITLE8=Sy and Unknown - Are U Ready
TTITLE9=Seduction - On My Own (Slipmatt Remix)
TTITLE10=Jimmy J and Cru-L-T - Take Me Away
TTITLE11=Force and Evolution - Fall Down (On Me)
EXTD=
EXTT0=
EXTT1=
EXTT2=
EXTT3=
EXTT4=
EXTT5=
EXTT6=
EXTT7=
EXTT8=
EXTT9=
EXTT10=
EXTT11=
PLAYORDER=
